<?xml version="1.0" encoding="UTF-8" standalone="no"?>
<!-- Created with Inkscape (http://www.inkscape.org/) -->

<svg
   xmlns:dc="http://purl.org/dc/elements/1.1/"
   xmlns:cc="http://creativecommons.org/ns#"
   xmlns:rdf="http://www.w3.org/1999/02/22-rdf-syntax-ns#"
   xmlns:svg="http://www.w3.org/2000/svg"
   xmlns="http://www.w3.org/2000/svg"
   xmlns:sodipodi="http://sodipodi.sourceforge.net/DTD/sodipodi-0.dtd"
   xmlns:inkscape="http://www.inkscape.org/namespaces/inkscape"
   viewBox="0 0 999.99996 999.99996"
   version="1.1"
   id="svg3977"
   height="1cm"
   inkscape:version="0.92.4 (5da689c313, 2019-01-14)"
   sodipodi:docname="emblem.svg"
   width="1cm">
  <defs
     id="defs3971" />
  <sodipodi:namedview
     id="base"
     pagecolor="#ffffff"
     bordercolor="#666666"
     borderopacity="1.0"
     inkscape:pageopacity="0.0"
     inkscape:pageshadow="2"
     inkscape:zoom="15.839192"
     inkscape:cx="10.122229"
     inkscape:cy="24.020326"
     inkscape:document-units="mm"
     inkscape:current-layer="layer1"
     showgrid="false"
     inkscape:window-width="1920"
     inkscape:window-height="1017"
     inkscape:window-x="-8"
     inkscape:window-y="-8"
     inkscape:window-maximized="1"
     showguides="true"
     units="cm" />
  <metadata
     id="metadata3974">
    <rdf:RDF>
      <cc:Work
         rdf:about="">
        <dc:format>image/svg+xml</dc:format>
        <dc:type
           rdf:resource="http://purl.org/dc/dcmitype/StillImage" />
        <dc:title></dc:title>
      </cc:Work>
    </rdf:RDF>
  </metadata>
  <g
     inkscape:label="Layer 1"
     inkscape:groupmode="layer"
     id="layer1"
     transform="translate(0,973.54163)">
    <path
       inkscape:connector-curvature="0"
       class="st0"
       d="m 41.05678,-436.59312 c 1.521907,-15.46873 -1.52192,-33.37974 1.521907,-52.10494 4.567182,-30.12327 20.552456,-53.73331 45.671787,-66.75976 6.089668,-3.25648 9.134365,-6.51293 10.656844,-15.46875 10.656842,-65.13109 35.776182,-125.37765 72.313592,-179.11098 4.56718,-6.51324 7.61216,-9.7697 1.52193,-18.7252 -6.08969,-9.7697 -1.52193,-20.3536 4.56716,-28.4949 51.76144,-61.87493 112.65695,-107.46664 184.97062,-132.70507 173.55274,-58.61816 325.79209,-18.72519 457.47899,118.86473 12.17933,13.02615 28.16431,25.23812 12.17933,47.22008 -3.04497,3.25647 1.52192,6.51323 4.56719,9.76969 37.2984,55.36172 62.418,117.23636 73.83581,183.99585 1.52187,6.51322 6.08962,9.76968 10.65683,13.02645 31.20904,17.09682 47.19423,45.59171 47.19423,83.85629 0,33.38004 3.0447,66.75978 -1.52185,100.13954 -7.61212,48.84846 -53.28401,82.22822 -97.43323,71.64432 -12.17905,-3.25645 -17.50749,-13.02614 -17.50749,-26.8665 0,-55.36172 1.52192,-110.72341 0,-166.08482 -4.56718,-148.988 -65.46268,-261.3395 -186.49304,-332.98382 -199.43332,-117.23633 -458.24029,15.46872 -501.62833,258.08272 -7.61188,41.52135 -6.08968,85.48499 -6.08968,127.00604 0,39.89298 0,78.97175 -1.52191,118.86471 0,13.02616 -7.61215,21.98167 -22.07493,21.98167 -57.089578,3.25679 -94.388253,-35.00813 -94.388253,-96.88275 1.52192,-9.7697 1.52192,-21.98167 1.52192,-38.2646"
       id="path3930"
       style="stroke-width:7.87223721" />
    <path
       inkscape:connector-curvature="0"
       class="st0"
       d="m 436.11756,-241.19922 c 20.55244,-8.1413 35.77618,-23.61003 40.34335,-48.84847 4.56719,-25.23841 -22.07463,-60.24656 -57.85081,-96.88275 -37.29867,-38.26459 -86.01519,-78.97175 -112.65702,-93.6263 -38.82115,-25.23842 -75.35857,-3.25646 -82.97044,45.59202 -9.13434,53.73331 0,104.20987 26.64183,148.98768 19.02996,31.75167 45.67178,45.59203 78.40326,48.84848 18.2687,-0.81532 92.10485,3.25647 108.08983,-4.07066"
       id="path3932"
       style="stroke-width:7.87223721" />
    <path
       inkscape:connector-curvature="0"
       class="st0"
       d="m 603.58093,-225.73048 c 23.59685,3.25646 45.67177,8.14131 69.26862,9.76969 31.20929,1.62778 54.80612,-8.14161 72.31388,-28.49489 22.07466,-25.23842 32.73121,-56.99009 31.20901,-90.36984 -1.52192,-35.00811 -28.16431,-55.36169 -63.94051,-48.84847 -32.73145,4.88486 -60.89579,20.35359 -90.5823,31.75166 -26.6421,11.39778 -50.23894,25.23813 -69.2689,43.14945 -26.64181,26.8665 -12.17933,63.503 29.68652,77.34336 5.32841,2.44319 12.94028,4.07065 21.31368,5.69904"
       id="path3934"
       style="stroke-width:7.87223721" />
    <path
       inkscape:connector-curvature="0"
       class="st0"
       d="m 852.49197,-255.85375 c -4.56719,-4.88485 -12.17904,-1.62778 -15.98499,4.88484 -14.46278,48.84848 -81.44823,212.490784 -309.80711,229.587881 -269.46355,20.3535052 143.86623,82.228219 261.8516,-11.398171 40.34337,-33.379687 86.01511,-66.759401 84.49292,-162.828 0,-18.7255 -8.37342,-50.47686 -20.55242,-60.24655"
       id="path3936"
       style="stroke-width:7.87223721" />
  </g>
</svg>
